<svg preserveAspectRatio="none" width="100%" height="100%" overflow="visible" style="display: block;" viewBox="0 0 17 19" fill="none" xmlns="http://www.w3.org/2000/svg">
<path id="Vector" d="M16 5.99829C15.9997 5.70602 15.9225 5.41897 15.7763 5.16593C15.63 4.91289 15.4198 4.70276 15.1667 4.55662L9.33333 1.22329C9.07997 1.07701 8.79256 1 8.5 1C8.20744 1 7.92003 1.07701 7.66667 1.22329L1.83333 4.55662C1.58022 4.70276 1.36998 4.91289 1.22372 5.16593C1.07745 5.41897 1.0003 5.70602 1 5.99829V12.665C1.0003 12.9572 1.07745 13.2443 1.22372 13.4973C1.36998 13.7504 1.58022 13.9605 1.83333 14.1066L7.66667 17.44C7.92003 17.5862 8.20744 17.6633 8.5 17.6633C8.79256 17.6633 9.07997 17.5862 9.33333 17.44L15.1667 14.1066C15.4198 13.9605 15.63 13.7504 15.7763 13.4973C15.9225 13.2443 15.9997 12.9572 16 12.665V5.99829Z" stroke="var(--stroke-0, #D0D2DD)" stroke-width="1.66667" stroke-linecap="round" stroke-linejoin="round"/>
</svg>
