<svg preserveAspectRatio="none" width="100%" height="100%" overflow="visible" style="display: block;" viewBox="0 0 12 12" fill="none" xmlns="http://www.w3.org/2000/svg">
<path id="Vector" d="M1.03299 1.57716C1.00068 1.50104 0.991846 1.417 1.00762 1.33582C1.0234 1.25464 1.06308 1.18003 1.12155 1.12155C1.18003 1.06308 1.25464 1.0234 1.33582 1.00762C1.417 0.991846 1.50104 1.00068 1.57716 1.03299L10.7438 4.78299C10.8254 4.81646 10.8943 4.87495 10.9405 4.95004C10.9867 5.02514 11.0079 5.11296 11.0011 5.20088C10.9942 5.28879 10.9597 5.37226 10.9024 5.43928C10.845 5.5063 10.7679 5.55341 10.6822 5.57383L7.05799 6.44133C6.90838 6.47706 6.77158 6.55351 6.66274 6.66221C6.5539 6.7709 6.47727 6.9076 6.44133 7.05716L5.57466 10.6822C5.55446 10.7682 5.50741 10.8457 5.4403 10.9032C5.3732 10.9608 5.28952 10.9955 5.20137 11.0024C5.11322 11.0093 5.02517 10.9879 4.94996 10.9414C4.87475 10.8949 4.81628 10.8257 4.78299 10.7438L1.03299 1.57716Z" stroke="var(--stroke-0, #D0D2DD)" stroke-width="1.66667" stroke-linecap="round" stroke-linejoin="round"/>
</svg>
