<svg preserveAspectRatio="none" width="100%" height="100%" overflow="visible" style="display: block;" viewBox="0 0 10 10" fill="none" xmlns="http://www.w3.org/2000/svg">
<path id="Vector" d="M1.02639 1.46173C1.00054 1.40083 0.993476 1.3336 1.0061 1.26865C1.01872 1.20371 1.05046 1.14402 1.09724 1.09724C1.14402 1.05046 1.20371 1.01872 1.26865 1.0061C1.3336 0.993476 1.40083 1.00054 1.46173 1.02639L8.79506 4.0264C8.86033 4.05317 8.91542 4.09996 8.9524 4.16004C8.98939 4.22011 9.00636 4.29037 9.00087 4.3607C8.99539 4.43103 8.96773 4.49781 8.92188 4.55143C8.87603 4.60504 8.81436 4.64273 8.74573 4.65906L5.8464 5.35306C5.72671 5.38165 5.61727 5.44281 5.53019 5.52977C5.44312 5.61672 5.38181 5.72608 5.35306 5.84573L4.65973 8.74573C4.64357 8.81459 4.60593 8.87653 4.55224 8.92258C4.49856 8.96863 4.43161 8.99642 4.3611 9.00191C4.29058 9.0074 4.22014 8.99032 4.15997 8.95314C4.0998 8.91595 4.05302 8.86059 4.0264 8.79506L1.02639 1.46173Z" stroke="var(--stroke-0, white)" stroke-width="1.33333" stroke-linecap="round" stroke-linejoin="round"/>
</svg>
